<svg width="57" height="52" viewBox="0 0 57 52" fill="none" xmlns="http://www.w3.org/2000/svg">
<g filter="url(#filter0_d_113_2)">
<path fill-rule="evenodd" clip-rule="evenodd" d="M49.9951 30.802H52.3948C53.7147 30.802 54.7946 31.8819 54.7946 33.2017V40.401C54.7946 41.7208 53.7147 42.8007 52.3948 42.8007H49.9951V45.2005C49.9951 47.8642 47.8593 50 45.1956 50H11.599C10.3261 50 9.10533 49.4943 8.20525 48.5943C7.30517 47.6942 6.79951 46.4734 6.79951 45.2005V42.8007H4.39975C3.07989 42.8007 2 41.7208 2 40.401V33.2017C2 31.8819 3.07989 30.802 4.39975 30.802H6.79951C6.79951 21.5149 14.3107 14.0037 23.5978 14.0037H25.9975V10.956C24.5577 10.1401 23.5978 8.58025 23.5978 6.80443C23.5969 5.96173 23.8179 5.13366 24.2386 4.40348C24.6593 3.67331 25.2649 3.06677 25.9943 2.64486C26.7238 2.22295 27.5515 2.00054 28.3942 2C29.2369 1.99946 30.0649 2.22081 30.7949 2.64178C31.5249 3.06276 32.1312 3.66852 32.5529 4.39816C32.9745 5.12779 33.1966 5.95558 33.1968 6.79828C33.197 7.64097 32.9754 8.46888 32.5541 9.19873C32.1328 9.92858 31.5268 10.5347 30.797 10.956V14.0037H33.1968C42.4839 14.0037 49.9951 21.5149 49.9951 30.802ZM20.4301 40.065L23.2618 37.2333L20.4301 34.4016L23.2618 31.5699L20.4301 28.7382L17.5984 31.5699L14.7667 28.7382L11.935 31.5699L14.7667 34.4016L11.935 37.2333L14.7667 40.065L17.5984 37.2333L20.4301 40.065ZM42.7246 36.0334L44.4764 34.2816C45.4363 33.3217 45.4363 31.7379 44.4764 30.802C43.4925 29.7941 41.9327 29.7941 40.9488 30.802L39.1969 32.5298L37.4451 30.802C36.4612 29.7941 34.9014 29.7941 33.9175 30.802C32.9576 31.7379 32.9576 33.3217 33.9175 34.2816L39.1969 39.5611L42.7246 36.0334Z" fill="#E6E6E6"/>
</g>
<defs>
<filter id="filter0_d_113_2" x="0" y="0" width="56.7946" height="52" filterUnits="userSpaceOnUse" color-interpolation-filters="sRGB">
<feFlood flood-opacity="0" result="BackgroundImageFix"/>
<feColorMatrix in="SourceAlpha" type="matrix" values="0 0 0 0 0 0 0 0 0 0 0 0 0 0 0 0 0 0 127 0" result="hardAlpha"/>
<feOffset/>
<feGaussianBlur stdDeviation="1"/>
<feComposite in2="hardAlpha" operator="out"/>
<feColorMatrix type="matrix" values="0 0 0 0 0 0 0 0 0 0 0 0 0 0 0 0 0 0 0.46 0"/>
<feBlend mode="normal" in2="BackgroundImageFix" result="effect1_dropShadow_113_2"/>
<feBlend mode="normal" in="SourceGraphic" in2="effect1_dropShadow_113_2" result="shape"/>
</filter>
</defs>
</svg>
